<svg width="25" height="26" viewBox="0 0 25 26" fill="none" xmlns="http://www.w3.org/2000/svg">
    <path d="M21.819 6.40392C18.1521 2.27865 18.655 0.675442 11.1523 2.62615C6.10552 3.93831 -0.965824 10.9892 4.04119 16.1817C6.54694 18.7803 14.1026 22.7271 17.819 22.4039C23.1449 21.9408 26.0163 11.7019 23.3745 7.95948C17.7016 -0.0771599 11.1495 2.34316 4.1523 7.51504C-3.16241 12.9216 4.84885 22.9578 11.5967 24.515C28.2362 28.3549 29.1421 -0.611271 11.819 1.07059C-0.0303574 2.22101 -3.53335 17.9902 8.37452 21.9595C16.77 24.758 23.5764 13.2199 18.7079 6.40392C14.0431 -0.126802 1.35629 2.97479 4.04119 11.6261C5.76121 17.1684 12.8911 16.7868 15.819 12.6261C18.6827 8.55661 13.0258 6.62724 10.0412 8.84837C7.84034 10.4862 5.27182 17.9567 10.5967 16.1817C12.816 15.442 17.2732 8.40392 12.5967 8.40392C7.70191 8.40392 8.03616 13.2727 8.81897 16.4039"
          stroke="#051B4D" stroke-linecap="round"/>
</svg>
